<mxfile host="app.diagrams.net" modified="2024-01-22T01:26:13.510Z" agent="Mozilla/5.0 (Macintosh; Intel Mac OS X 10_15_7) AppleWebKit/537.36 (KHTML, like Gecko) Chrome/120.0.0.0 Safari/537.36" version="21.8.2" etag="rXTLW0mnzp5vSSPfMSc5" type="github">
  <diagram name="第 1 页" id="-UnhhdLZkilbsq0htS_1">
    <mxGraphModel>
      <root>
        <mxCell id="0" />
        <mxCell id="1" parent="0" />
      </root>
    </mxGraphModel>
  </diagram>
</mxfile>
